<svg xmlns="http://www.w3.org/2000/svg" viewBox="0 0 32 32">
  <rect width="32" height="32" rx="6" fill="#071A3D"/>
  <circle cx="16" cy="16" r="11" fill="none" stroke="#F5A623" stroke-width="1.2" opacity=".4"/>
  <circle cx="16" cy="16" r="11" fill="none" stroke="#F5A623" stroke-width="1.2" stroke-dasharray="3.5 2"/>
  <polygon points="16,8 20,12 19,17 13,17 12,12" fill="#F5A623" opacity=".95"/>
  <polygon points="16,5 18,7.5 16,10 14,7.5" fill="#F5A623" opacity=".75"/>
  <polygon points="23,11 25.5,13.5 23,16 20.5,13.5" fill="#F5A623" opacity=".75"/>
  <polygon points="23,19 25,20 23.5,23 21,21.5" fill="#F5A623" opacity=".75"/>
  <polygon points="9,11 11.5,13.5 9,16 6.5,13.5" fill="#F5A623" opacity=".75"/>
  <polygon points="9,19 11,21.5 9.5,23 7,20" fill="#F5A623" opacity=".75"/>
  <polygon points="16,27 18,24.5 16,22 14,24.5" fill="#F5A623" opacity=".75"/>
</svg>
