<svg xmlns="http://www.w3.org/2000/svg" viewBox="0 0 32 32">
  <rect width="32" height="32" rx="6" fill="#071A3D"/>
  <!-- Soccer ball -->
  <circle cx="16" cy="16" r="11" fill="#F0F0F0" stroke="#222" stroke-width="0.5"/>
  <!-- Center pentagon -->
  <polygon points="16,9 19.8,11.8 18.4,16.2 13.6,16.2 12.2,11.8" fill="#111"/>
  <!-- Surrounding pentagons (partial, clipped by circle) -->
  <polygon points="16,5 18.5,7 17.8,9.5 14.2,9.5 13.5,7" fill="#111"/>
  <polygon points="22.5,10.5 23.8,13 22.5,15 19.5,14.5 19.8,11.8" fill="#111"/>
  <polygon points="21.5,20.5 19.5,21.5 17.5,19.5 18.4,16.2 21.5,17" fill="#111"/>
  <polygon points="10.5,20.5 12.5,21.5 14.5,19.5 13.6,16.2 10.5,17" fill="#111"/>
  <polygon points="9.5,10.5 8.2,13 9.5,15 12.5,14.5 12.2,11.8" fill="#111"/>
  <!-- Shine -->
  <ellipse cx="13" cy="12" rx="2.5" ry="1.5" fill="white" opacity="0.25" transform="rotate(-30,13,12)"/>
</svg>
